<svg width="148" height="148" viewBox="0 0 148 148" fill="none" xmlns="http://www.w3.org/2000/svg">
<g clip-path="url(#clip0_279_40)">
<path d="M67.4106 72.4028C75.5222 64.8317 73.0468 55.4679 65.7005 44.1207C58.3539 32.7738 43.5654 28.737 40.8065 31.312C38.0476 33.887 37.4365 52.2979 44.7828 63.6451C52.1294 74.992 59.2988 79.9741 67.4106 72.4028Z" fill="url(#paint0_linear_279_40)"/>
<path d="M74.4243 73.4506C80.4252 82.7198 88.4479 79.3306 98.3783 70.0619C108.309 60.7929 112.426 43.038 110.385 39.8856C108.344 36.7332 92.8336 36.891 82.9034 46.16C72.9729 55.4287 68.4234 64.182 74.4243 73.4506Z" fill="url(#paint1_linear_279_40)"/>
<path d="M71.1433 68.3519C81.1077 69.5505 85.0263 60.5322 86.8533 45.9548C88.6804 31.377 81.1487 15.9695 77.7597 15.5618C74.3706 15.1542 62.9849 28.2861 61.1578 42.8639C59.3307 57.4414 61.1788 67.1533 71.1433 68.3519Z" fill="url(#paint2_linear_279_40)"/>
<path d="M68.634 132.817C89.5255 132.817 106.468 126.872 106.468 99.9096C106.468 72.947 89.5255 50.8218 68.634 50.8218C47.7422 50.8218 30.813 72.947 30.813 99.9096C30.813 126.872 47.7422 132.817 68.634 132.817Z" fill="url(#paint3_linear_279_40)"/>
<path d="M87.7428 94.405C90.7273 94.405 93.1467 93.3026 93.1467 91.9427C93.1467 90.5829 90.7273 89.4805 87.7428 89.4805C84.7583 89.4805 82.3389 90.5829 82.3389 91.9427C82.3389 93.3026 84.7583 94.405 87.7428 94.405Z" fill="#EAADCC"/>
<path d="M47.7237 92.9092C50.6859 93.2655 53.2244 92.4602 53.3936 91.1105C53.5628 89.7607 51.2985 88.3777 48.3363 88.0214C45.374 87.6651 42.8355 88.4704 42.6664 89.8201C42.4972 91.1699 44.7614 92.5529 47.7237 92.9092Z" fill="#EAADCC"/>
<path d="M62.3478 89.6433C62.2935 89.5605 62.2229 89.4892 62.1401 89.4336C62.0573 89.3779 61.964 89.3391 61.8656 89.3192C61.7673 89.2993 61.6659 89.2989 61.5674 89.318C61.4689 89.337 61.3752 89.3751 61.292 89.4301C61.2087 89.4851 61.1375 89.5558 61.0825 89.6381C61.0275 89.7204 60.9898 89.8126 60.9716 89.9093C60.9535 90.0061 60.9552 90.1054 60.9768 90.2015C60.9983 90.2975 61.0393 90.3884 61.0972 90.4688C62.2542 92.1509 64.0336 93.1271 66.3747 93.3894C68.7056 93.6502 70.7869 93.0649 72.5718 91.644C72.6514 91.5838 72.718 91.5085 72.7675 91.4227C72.817 91.3369 72.8485 91.2422 72.8601 91.1443C72.8717 91.0463 72.8632 90.9471 72.835 90.8525C72.8069 90.7578 72.7597 90.6696 72.6962 90.5931C72.6328 90.5166 72.5543 90.4533 72.4655 90.407C72.3767 90.3606 72.2793 90.3322 72.179 90.3233C72.0788 90.3144 71.9778 90.3252 71.8819 90.3551C71.786 90.3851 71.6972 90.4335 71.6207 90.4976C70.1524 91.6663 68.4765 92.1375 66.5462 91.9214C64.6258 91.7062 63.2467 90.9501 62.3478 89.6433ZM51.1677 78.2564C51.877 78.2312 52.5845 78.3436 53.2493 78.5872C53.9142 78.8307 54.5234 79.2006 55.0419 79.6755C55.5617 80.149 55.9809 80.7185 56.2753 81.3513C56.5697 81.9841 56.7335 82.6676 56.7574 83.3626C56.783 84.0574 56.6682 84.7504 56.4197 85.4017C56.1711 86.053 55.7935 86.6497 55.3088 87.1576C54.8254 87.6668 54.2441 88.0774 53.5982 88.3659C52.9523 88.6543 52.2546 88.8148 51.5451 88.8382C50.8358 88.8634 50.1283 88.751 49.4635 88.5075C48.7986 88.2639 48.1894 87.8941 47.6709 87.4191C47.1513 86.9455 46.7323 86.3759 46.438 85.7432C46.1437 85.1104 45.98 84.427 45.9562 83.732C45.9305 83.0372 46.0452 82.3442 46.2937 81.6929C46.5422 81.0416 46.9197 80.4449 47.4044 79.937C47.8877 79.4278 48.469 79.0172 49.1148 78.7288C49.7606 78.4403 50.4583 78.2798 51.1677 78.2564Z" fill="black"/>
<path d="M51.4509 82.6818C51.4439 82.4548 51.3912 82.2315 51.2958 82.0245C51.2004 81.8176 51.0642 81.6312 50.895 81.4759C50.7259 81.3207 50.5271 81.1998 50.3101 81.12C50.0931 81.0403 49.8621 81.0034 49.6305 81.0113C49.3989 81.0193 49.1711 81.072 48.9603 81.1664C48.7496 81.2609 48.5599 81.3952 48.4023 81.5616C48.2446 81.7281 48.1221 81.9234 48.0418 82.1364C47.9614 82.3493 47.9248 82.5758 47.934 82.8026C47.9504 83.2596 48.1513 83.6914 48.4927 84.0032C48.8341 84.315 49.2879 84.4811 49.7543 84.4651C50.2208 84.4491 50.6616 84.2522 50.9798 83.9177C51.2981 83.5833 51.4677 83.1387 51.4513 82.6818H51.4509Z" fill="white"/>
<path d="M83.9102 79.6004C84.6196 79.5751 85.3271 79.6875 85.992 79.9309C86.657 80.1744 87.2662 80.5442 87.7848 81.0191C88.3045 81.4927 88.7235 82.0623 89.0178 82.695C89.312 83.3278 89.4758 84.0113 89.4995 84.7062C89.5253 85.4011 89.4106 86.0942 89.162 86.7455C88.9135 87.3968 88.5361 87.9937 88.0513 88.5016C87.5679 89.0108 86.9866 89.4214 86.3407 89.7097C85.6948 89.9981 84.9971 90.1585 84.2877 90.1819C83.5784 90.207 82.871 90.0946 82.2062 89.851C81.5414 89.6075 80.9323 89.2377 80.4138 88.7628C79.894 88.2892 79.4749 87.7197 79.1805 87.087C78.8861 86.4542 78.7222 85.7707 78.6983 85.0757C78.6727 84.3808 78.7874 83.6878 79.036 83.0365C79.2846 82.3853 79.6621 81.7885 80.1469 81.2807C80.6303 80.7715 81.2117 80.3609 81.8576 80.0726C82.5035 79.7842 83.2008 79.6238 83.9102 79.6004Z" fill="black"/>
<path d="M51.1278 77.1492C54.735 77.0259 57.7614 79.7903 57.8873 83.3238C58.0133 86.8577 55.1914 89.8221 51.5842 89.9455C47.9769 90.0689 44.9513 87.3044 44.8253 83.7706C44.6994 80.2371 47.5209 77.2726 51.1278 77.1492ZM55.6265 83.4011C55.5443 81.0907 53.5655 79.2831 51.2067 79.364C48.8486 79.4446 47.0035 81.3828 47.0861 83.6932C47.1684 86.0041 49.1468 87.8113 51.5052 87.7307C53.8637 87.6501 55.7088 85.712 55.6265 83.4011ZM83.871 78.4928C87.4782 78.3694 90.5042 81.1338 90.6302 84.6673C90.7561 88.2012 87.9343 91.1656 84.3274 91.289C80.7201 91.4124 77.6941 88.648 77.5682 85.1145C77.4422 81.5806 80.2641 78.6162 83.871 78.4928ZM88.3694 84.7447C88.2871 82.4342 86.3087 80.627 83.9499 80.7076C81.5915 80.7881 79.7463 82.7267 79.829 85.0371C79.9112 87.3476 81.8896 89.1552 84.2481 89.0746C86.6069 88.9937 88.4516 87.0555 88.3694 84.7447Z" fill="white"/>
<path d="M84.1941 84.0255C84.1873 83.7984 84.1347 83.5749 84.0394 83.3678C83.9441 83.1607 83.808 82.9741 83.6388 82.8188C83.4696 82.6634 83.2708 82.5423 83.0537 82.4625C82.8366 82.3827 82.6056 82.3457 82.3738 82.3536C82.1421 82.3615 81.9143 82.4143 81.7034 82.5088C81.4925 82.6033 81.3028 82.7377 81.1451 82.9042C80.9875 83.0708 80.865 83.2662 80.7847 83.4794C80.7044 83.6925 80.6678 83.919 80.6772 84.146C80.696 84.6012 80.898 85.0305 81.2389 85.3403C81.5799 85.65 82.0321 85.815 82.4968 85.799C82.9616 85.7831 83.4009 85.5876 83.719 85.2553C84.037 84.923 84.2079 84.4808 84.1941 84.0255Z" fill="white"/>
<path d="M40.9836 101.469L49.1829 109.827L55.066 103.696C55.3185 103.44 55.6637 103.291 56.0271 103.283C56.3904 103.274 56.7427 103.406 57.0075 103.65C57.2723 103.894 57.4284 104.23 57.4421 104.586C57.4557 104.942 57.3258 105.288 57.0804 105.551L51.1015 111.783L59.5835 120.429C59.7093 120.557 59.8081 120.709 59.8742 120.874C59.9404 121.04 59.9726 121.217 59.9689 121.395C59.9653 121.572 59.926 121.748 59.8532 121.911C59.7804 122.074 59.6755 122.221 59.5446 122.344C59.4137 122.467 59.2593 122.564 59.0902 122.629C58.9211 122.694 58.7406 122.725 58.5591 122.722C58.3776 122.718 58.1985 122.68 58.0322 122.608C57.8659 122.537 57.7155 122.434 57.5897 122.306L49.2053 113.759L45.2673 117.863C45.1429 117.993 44.9937 118.097 44.8282 118.17C44.6627 118.243 44.4841 118.284 44.3026 118.289C44.1212 118.295 43.9404 118.265 43.7706 118.202C43.6008 118.139 43.4453 118.044 43.3131 117.922C43.1808 117.8 43.0743 117.654 42.9997 117.492C42.9251 117.33 42.8838 117.155 42.8782 116.977C42.8727 116.799 42.9029 116.622 42.9671 116.456C43.0314 116.29 43.1285 116.137 43.2529 116.008L47.2868 111.803L38.9902 103.346C38.8644 103.218 38.7656 103.067 38.6995 102.901C38.6333 102.735 38.6012 102.558 38.6048 102.381C38.6084 102.203 38.6477 102.027 38.7205 101.864C38.7933 101.701 38.8982 101.554 39.0291 101.431C39.16 101.308 39.3144 101.211 39.4835 101.146C39.6526 101.081 39.8331 101.05 40.0146 101.053C40.1961 101.057 40.3752 101.095 40.5415 101.167C40.7078 101.238 40.8578 101.341 40.9836 101.469ZM96.046 101.469C96.3001 101.21 96.6487 101.061 97.0153 101.053C97.1968 101.05 97.3773 101.082 97.5463 101.146C97.7154 101.211 97.8698 101.308 98.0007 101.431C98.1316 101.554 98.2364 101.702 98.3092 101.865C98.382 102.028 98.4213 102.203 98.4249 102.381C98.4285 102.559 98.3963 102.735 98.3302 102.901C98.264 103.067 98.1652 103.218 98.0394 103.346L89.7425 111.803L93.7771 116.008C94.0207 116.262 94.1551 116.598 94.1522 116.946C94.1493 117.295 94.0095 117.629 93.7617 117.879L93.7165 117.922C93.5843 118.044 93.4288 118.139 93.259 118.202C93.0892 118.265 92.9084 118.295 92.7269 118.289C92.5454 118.284 92.3669 118.243 92.2014 118.17C92.0359 118.097 91.8867 117.992 91.7624 117.863L87.8243 113.758L79.4399 122.306C79.1934 122.557 78.8575 122.706 78.5021 122.721C78.1467 122.736 77.7991 122.616 77.5317 122.386L77.485 122.344C77.3541 122.221 77.2493 122.074 77.1765 121.911C77.1037 121.748 77.0644 121.572 77.0608 121.394C77.0572 121.217 77.0894 121.04 77.1556 120.874C77.2218 120.709 77.3206 120.557 77.4465 120.429L85.9285 111.783L79.9492 105.551C79.7057 105.297 79.5715 104.961 79.5743 104.613C79.5772 104.264 79.717 103.931 79.9646 103.681L80.0098 103.637C80.2769 103.391 80.6328 103.259 80.9992 103.27C81.3656 103.281 81.7125 103.435 81.9636 103.696L87.8463 109.827L96.046 101.469Z" fill="#ECB732"/>
<path d="M77.1584 59.5907C77.4175 59.8447 77.563 60.1891 77.563 60.5481C77.563 60.9072 77.4175 61.2515 77.1584 61.5055L70.7216 67.8117L74.6446 71.6557C74.8962 71.902 75.0412 72.2339 75.0494 72.5823C75.0576 72.9307 74.9284 73.2687 74.6887 73.5262L74.6446 73.5712C74.3854 73.8251 74.0338 73.9678 73.6672 73.9678C73.3006 73.9678 72.949 73.8251 72.6897 73.5712L68.7659 69.7272L64.8422 73.5712C64.7139 73.6974 64.5615 73.7976 64.3936 73.866C64.2257 73.9344 64.0457 73.9698 63.8639 73.97C63.6821 73.9701 63.5021 73.9352 63.334 73.8671C63.166 73.799 63.0134 73.6992 62.8848 73.5732C62.7563 73.4472 62.6544 73.2977 62.5849 73.1331C62.5154 72.9685 62.4798 72.7921 62.48 72.6139C62.4802 72.4358 62.5163 72.2595 62.5862 72.0951C62.6561 71.9306 62.7584 71.7813 62.8873 71.6557L66.8107 67.8117L60.3739 61.5059C60.1223 61.2595 59.9773 60.9276 59.9691 60.5793C59.9609 60.2309 60.0901 59.8928 60.3298 59.6353L60.3739 59.5904C60.6331 59.3364 60.9847 59.1938 61.3513 59.1938C61.7179 59.1938 62.0695 59.3364 62.3288 59.5904L68.7659 65.8962L75.2031 59.5904C75.3315 59.4646 75.4839 59.3648 75.6516 59.2967C75.8194 59.2286 75.9992 59.1936 76.1807 59.1936C76.3623 59.1936 76.5421 59.2286 76.7098 59.2967C76.8776 59.3648 77.03 59.4649 77.1584 59.5907Z" fill="#FFC73B"/>
</g>
<defs>
<linearGradient id="paint0_linear_279_40" x1="1301.07" y1="-933.293" x2="1701.7" y2="1051.3" gradientUnits="userSpaceOnUse">
<stop stop-color="#52CE63"/>
<stop offset="1" stop-color="#51A256"/>
</linearGradient>
<linearGradient id="paint1_linear_279_40" x1="1099.15" y1="1279.69" x2="-920.129" y2="1703.86" gradientUnits="userSpaceOnUse">
<stop stop-color="#52CE63"/>
<stop offset="1" stop-color="#51A256"/>
</linearGradient>
<linearGradient id="paint2_linear_279_40" x1="1349.55" y1="168.542" x2="975.885" y2="3275.03" gradientUnits="userSpaceOnUse">
<stop stop-color="#8AE99C"/>
<stop offset="1" stop-color="#52CE63"/>
</linearGradient>
<linearGradient id="paint3_linear_279_40" x1="3917.83" y1="1483.53" x2="3314.87" y2="8242.43" gradientUnits="userSpaceOnUse">
<stop stop-color="#FFE56C"/>
<stop offset="1" stop-color="#FFC63A"/>
</linearGradient>
<clipPath id="clip0_279_40">
<rect width="94" height="119.067" fill="white" transform="translate(27 14)"/>
</clipPath>
</defs>
</svg>
